<svg xmlns="http://www.w3.org/2000/svg" width="95" height="95.001" viewBox="0 0 95 95.001"><defs><style>.a{fill:#fff;}</style></defs><g transform="translate(-2717.019 54.273)"><g transform="translate(2717.019 -54.273)"><path class="a" d="M2764.519,40.728a47.554,47.554,0,0,1-47.5-47.5,47.554,47.554,0,0,1,47.5-47.5,47.555,47.555,0,0,1,47.5,47.5A47.555,47.555,0,0,1,2764.519,40.728Zm0-89.278a41.825,41.825,0,0,0-41.777,41.778,41.825,41.825,0,0,0,41.777,41.778A41.825,41.825,0,0,0,2806.3-6.772,41.825,41.825,0,0,0,2764.519-48.55Z" transform="translate(-2717.019 54.273)"/></g><g transform="translate(2751.227 -28.398)"><path class="a" d="M2821.791,19.633a3.669,3.669,0,0,1,0,5.856l-14.335,9.6-14.335,9.6c-1.944,1.3-4.374-.325-4.374-2.928V3.367c0-2.6,2.43-4.229,4.374-2.928l14.335,9.6Z" transform="translate(-2788.747 0.019)"/></g></g></svg>